# xmcd
#
# Track frame offsets: 
#        150
#        11677
#        32967
#        50008
#        69156
#        100408
#        119383
#        138013
#        153834
#        167927
#        184323
#        201932
#        233832
#        253839
#        272354
#        287811
#        304600
#
# Disc length: 4349 seconds
#
# Revision: 1
# Processed by: cddbd v1.5.2PL0 Copyright (c) Steve Scherf et al.
# Submitted via: ExactAudioCopy v0.99pb4
#
DISCID=f010fb11
DTITLE=Various Artist - Chemikal Underground CHEM087CD
DYEAR=2006
DGENRE=Alternative
TTITLE0=Arab Strap - I Work In A Saloon
TTITLE1=De Rosa - Cathkin Braes
TTITLE2=Interpol - 5
TTITLE3=Malcolm Middleton - Break My Heart
TTITLE4=Kempston, Protek and Fuller - Localised Flooding
TTITLE5=Magoo - A To Z And Back Again
TTITLE6=Suckle - To Be King
TTITLE7=Mother and the Addicts - Oh Yeah... You Look Quite Nice
TTITLE8=Model Fighter - Metallic Rutland
TTITLE9=Cha Cha Cohen - Heck Singhi
TTITLE10=Aereogramme - Black Path
TTITLE11=British Meat Scene - Shatner's Tactic
TTITLE12=Radar Bros - Shifty Lies
TTITLE13=Sluts Of Trust - Piece O' You
TTITLE14=Mogwai - Year 2000 Non-Compliant Cardia
TTITLE15=Bis - Brainclouds
TTITLE16=The Delgados - American Trilogy
EXTD=
EXTT0=
EXTT1=
EXTT2=
EXTT3=
EXTT4=
EXTT5=
EXTT6=
EXTT7=
EXTT8=
EXTT9=
EXTT10=
EXTT11=
EXTT12=
EXTT13=
EXTT14=
EXTT15=
EXTT16=
PLAYORDER=
